<mxfile host="app.diagrams.net" agent="Mozilla/5.0 (Windows NT 10.0; Win64; x64) AppleWebKit/537.36 (KHTML, like Gecko) Chrome/129.0.0.0 Safari/537.36" version="24.7.17">
  <diagram name="第 1 页" id="rXd1CP75CRenwDPl2Bag">
    <mxGraphModel dx="1687" dy="816" grid="1" gridSize="10" guides="1" tooltips="1" connect="1" arrows="1" fold="1" page="1" pageScale="1" pageWidth="827" pageHeight="1169" math="0" shadow="0">
      <root>
        <mxCell id="0" />
        <mxCell id="1" parent="0" />
        <mxCell id="KsepPGmTPoP3qZVe8c_a-5" value="" style="rounded=0;whiteSpace=wrap;html=1;" vertex="1" parent="1">
          <mxGeometry x="60" y="200" width="510" height="470" as="geometry" />
        </mxCell>
        <mxCell id="KsepPGmTPoP3qZVe8c_a-8" value="" style="rounded=0;whiteSpace=wrap;html=1;" vertex="1" parent="1">
          <mxGeometry x="680" y="200" width="510" height="470" as="geometry" />
        </mxCell>
        <mxCell id="KsepPGmTPoP3qZVe8c_a-13" value="" style="rounded=0;whiteSpace=wrap;html=1;" vertex="1" parent="1">
          <mxGeometry x="90" y="550" width="120" height="70" as="geometry" />
        </mxCell>
        <mxCell id="KsepPGmTPoP3qZVe8c_a-16" value="" style="rounded=0;whiteSpace=wrap;html=1;" vertex="1" parent="1">
          <mxGeometry x="255" y="550" width="120" height="70" as="geometry" />
        </mxCell>
        <mxCell id="KsepPGmTPoP3qZVe8c_a-17" value="" style="rounded=0;whiteSpace=wrap;html=1;" vertex="1" parent="1">
          <mxGeometry x="414" y="550" width="120" height="70" as="geometry" />
        </mxCell>
        <mxCell id="KsepPGmTPoP3qZVe8c_a-18" value="" style="ellipse;whiteSpace=wrap;html=1;aspect=fixed;" vertex="1" parent="1">
          <mxGeometry x="145" y="340" width="110" height="110" as="geometry" />
        </mxCell>
        <mxCell id="KsepPGmTPoP3qZVe8c_a-19" value="" style="ellipse;whiteSpace=wrap;html=1;aspect=fixed;" vertex="1" parent="1">
          <mxGeometry x="359" y="340" width="110" height="110" as="geometry" />
        </mxCell>
      </root>
    </mxGraphModel>
  </diagram>
</mxfile>
